<svg xmlns="http://www.w3.org/2000/svg" viewBox="0 0 145 123.5">
<!-- SVG created with Arrow, by QuiverAI (https://quiver.ai) -->
  <style type="text/css">.cls-0 {fill:#157287;}
.cls-1 {fill:#4E9EB1;}
.cls-2 {fill:#3790A2;}
.cls-3 {fill:#1B778A;}
.cls-4 {fill:#66ACC0;}
.cls-5 {fill:#76BDCB;}
.cls-6 {fill:#98CDE4;}
.cls-7 {fill:#80BEE0;}
.cls-8 {fill:#90C9DB;}
.cls-9 {fill:#ABD7E5;}
.cls-10 {fill:#6DB6C4;}
.cls-11 {fill:#96D4DA;}
.cls-12 {fill:#80C8CA;}
.cls-13 {fill:#63B6C0;}
.cls-14 {fill:#57A7B6;}
.cls-15 {fill:#137185;}
.cls-16 {fill:#68B1C2;}
.cls-17 {fill:#5BA5B9;}
.cls-18 {fill:#70B8C9;}
.cls-19 {fill:#5299AF;}
.cls-20 {fill:#B5DAEA;}
.cls-21 {fill:#CBE5EF;}
.cls-22 {fill:#8DC5DD;}
.cls-23 {fill:#71B8D4;}
.cls-24 {fill:#5CA4CD;}
.cls-25 {fill:#78BDD6;}
.cls-26 {fill:#62ACCB;}
.cls-27 {fill:#FFFFFF;}
.cls-28 {fill:#6DB8D3;}
.cls-29 {fill:#9FD1E4;}
.cls-30 {fill:#C7E0ED;}
.cls-31 {fill:#76B9D2;}
.cls-32 {fill:#AED6E6;}
.cls-33 {fill:#89C2DA;}
.cls-34 {fill:#CFE2ED;}
.cls-35 {fill:#177689;}
.cls-36 {fill:#69B2C1;}
.cls-37 {fill:#7BBDCB;}
.cls-38 {fill:#63A3B5;}
.cls-39 {fill:#79B8C9;}
.cls-40 {fill:#88C4D8;}
.cls-41 {fill:#CEE5F0;}
.cls-42 {fill:#71BACE;}
.cls-43 {fill:#8FC7E0;}
.cls-44 {fill:#84BED6;}
.cls-45 {fill:#C2E1ED;}
.cls-46 {fill:#88C4DA;}
.cls-47 {fill:#B0D9E7;}
.cls-48 {fill:#86C4DA;}
.cls-49 {fill:#D6E9F3;}
.cls-50 {fill:#D0E6F0;}
.cls-51 {fill:#93C8DE;}
.cls-52 {fill:#B7DCEB;}</style>
  <path d="m9.2 42.3c6.8-9.8 4.7-18.4 12.1-26.7 5.6-6.3 12.1-6.2 18.3-9.1 5.7-2.7 10.3-6.5 18-6.5 11.7 0 15.8 5.3 23.1 8.9 3.5 1.8 7.3 3.3 12.2 4.1 6.4 0.6 11 2.3 14.7 6.5 2.2 2.5 2.8 4.7 5.8 7.7 3.2 3.3 6.5 3.7 10.3 6.7 7.1 5.3 13 16.6 19.2 32.5-15.8 0-47.6-1.1-47.6-1.1h-55.7l-30.2 29.3c-5.8-5.5-9.4-15.4-9.4-24.6 0-10.9 0.7-15.6 9.2-27.7z" fill="#157287"/>
  <linearGradient id="SVGID_1_" x1="56.71" x2="51.75" y1="6.69" y2="46.56" gradientUnits="userSpaceOnUse">
    <stop stop-color="#4D9FB1" offset="0"/>
    <stop stop-color="#328EA2" offset="1"/>
  </linearGradient>
  <path d="m26.1 23.7c2.8-3.8 4-8.9 9.9-14.3l5.2-4.4c4.7-2.5 9.3-5 15.7-5 8.9-0.1 13 2.5 17.6 5.3-6-0.3-11.1-4.7-15.3 0.8 10.8 3.3 12.7 8.7 22.6 8.5 2.4 0 3.2-0.1 5.3 0.1 12 1 17.8 4.5 22.4 11.3 2.2 3.3 3.5 5.7 7.6 8.8 3.3 2.5 8.2 6.9 8.3 13.6 0.1 5.6-3.7 6.5-6.8 1.9-3.4-4.7-4.1-8.3-8.5-12.1-11.3-9-22.8-9.7-28.7-14-11-7.9-17.2-4.8-22.9-3.3-7.7 2-11.6 2.8-16.4 7.1-9.2 8.1-12.4 16.2-12.6 24.9-1.1-4.9-0.5-9 3.1-14.8l-9.1 4-2 7c-1.5-4.3-1.5-14.6 2.7-22.7l1.9-2.7z" fill="url(#SVGID_1_)"/>
  <path d="m24.8 55.6c-3.1-2.7-6.1-5.6-11.9-5.6-4.2 0-7.4 1.6-11.8 8.7 1.2-5.8 4.6-11.1 6.2-13.4 5-6.8 6-11.2 7.1-15.3-2.4 8.1 5.7 9.1 5.9 19 0.4-9.1 0-17.3 5.8-25.3-2.4 4.3-4.6 11-4.4 15.2 1-5 5-7.8 8.4-9.6 7.1-3.6 9.1-5.2 14.9-11.4 4.5-4.8 8.9-9 14.7-7.2 4.7 1.3 9.1 4 14 5 5.9 1.2 13.5 0 18.4 5.5 3.5 3.6 4.7 6.4 8.7 8.5 4.6 2.8 9.1 3.6 11.8 5.5l3.9 3.5-2.1 2.2c-4.8-5.3-10.8-7.3-15.2-9.2-7.2-3-14.7-3.7-19.1-5.8-2.5-1.4-3.8-2.8-8.2-2.8-6.5 0-10.2 1.4-15.2 5-4.3 3.2-10.4 10.4-12.6 14.8-5.2 8.7-8.8 16.2-5.4 21.2l-8-3.2-5.9-5.3z" fill="#18778A"/>
  <path d="m26 24.5c2.7-3.3 3.7-8 8-12.1 1.6-1.9 3.3-3.9 6.4-6-1.9 0.8-5.4 4.1-8.3 7.5-3 3.7-4.6 8.4-7.2 11.8l1.1-1.2z" fill="#66AFC2"/>
  <path d="m59.9 20.4c2.1-1.2 8.6-2 11.4-1.2 4.3 0.9 7 3.3 8.7 4.9-2.9-1.2-5.2-4.2-11.2-4.6-3.6-0.3-7.1 0.5-8.9 0.9z" fill="#65B0C3"/>
  <path d="m80 25.6c5.4 2 10.5 2.4 15.3 4.3 7.6 2.8 16 6.8 19.6 13.3l1.4 3.2c-3-4.3-4.3-7.2-11.4-11.2-8.6-4.8-13.7-5.7-21.8-8.1-1.1-0.4-2.6-0.8-3.1-1.5z" fill="#64B0C3"/>
  <linearGradient id="SVGID_2_" x1="14.38" x2="20" y1="51.03" y2="70.91" gradientUnits="userSpaceOnUse">
    <stop stop-color="#4092A7" offset="0"/>
    <stop stop-color="#137185" offset="1"/>
  </linearGradient>
  <path d="m49.7 77.9c0.7-0.7 0.3-1.9 0.2-2.7-1.2-3.6-5.3-8.4-9.9-10.7-6.4-2.9-10.8-4.1-13.5-8.1-2-2-5.3-5.5-9.2-6.5-6.4-1.5-10.9 0.4-16.2 8.8l-1 2.5-0.1 8.7 49.7 8z" fill="url(#SVGID_2_)"/>
  <path d="m23.6 35.6c-2.5 6.8-1.9 17.3 4.4 22.8-3.1-1.3-8.1-14.5-4.4-22.8z" fill="#509DB1"/>
  <path d="m29.5 52.9c0.5-9.3 4.5-14.5 8.6-20.2 5.5-7.1 9.9-9.2 21.1-11.8-6.8 2.3-12.9 3.6-17.5 8.2-4.9 5-11.6 13.3-12.2 23.8z" fill="#69B2C1"/>
  <path d="m61.6 11.2c-8.1-2.8-12.4 2.5-16.6 6.5 4.7-5.6 9.9-9.2 16.6-6.5z" fill="#228093"/>
  <path d="m117.5 34.9c-2.7-2.2-6.3-9-8.7-12.9 3.6 4.4 4.3 7.3 9.8 13.2 3 2.9 7.1 7.3 6.7 14.4 0-7.7-5.3-12.7-7.8-14.7z" fill="#58ACBB"/>
  <linearGradient id="SVGID_3_" x1="57.79" x2="56.74" y1="25.65" y2="36.97" gradientUnits="userSpaceOnUse">
    <stop stop-color="#1F7E92" offset="0"/>
    <stop stop-color="#3694A6" offset="1"/>
  </linearGradient>
  <path d="m45.3 42.5c5.6-8.1 12.2-18 23-19.2 4.8-0.4 7.6-0.1 11.4 2.4l1.9 1.1c-8-0.3-12.7 0.8-16.7 1.9-4.2 1-13 5.4-19.6 13.8z" fill="url(#SVGID_3_)"/>
  <path d="m42.8 38.4c-3.3 3.2-8.6 9.6-7.1 17.9-1.3-5.4 1.1-12.7 7-17.9h0.1z" fill="#3C93A6"/>
  <path d="m64.5 24c-7.2 2-13.6 10.1-17.4 14.9 3.4-4.9 9.3-12.5 17.4-14.9z" fill="#3B93A5"/>
  <path d="m19.9 61.7c3.6 9.6 16.5 6.2 24.6 11.8-5.6-5.1-20.8-0.4-24.6-11.8z" fill="#6BB3C5"/>
  <path d="m96.7 59.9-5.5-3.1 8-0.4 3.3 1.1v0.5l-5.8 1.9z" fill="#157287"/>
  <path d="m40.9 109.9c6.8 3.2 14 10.4 29.2 12.5 10.3 1.5 24.4 1.6 39.4-2.8l-40.7-9.7h-27.9z" fill="#58A8BA"/>
  <path d="m10.1 95.6c3.5 3.2 6.8 5.9 15.1 8.5 4.7 1.4 10.4 2.4 15.7 5.5 18.4 0.8 21.5 3.1 24.7 7.1 1.3 1.7 2.5 3.6 4.5 5.4-15-1.4-23.2-8.6-29.2-11.8-5.2-2.8-9.2-3.9-15.6-5.8-5.7-1.6-11.8-4.8-15.2-8.9z" fill="#74BDCB"/>
  <linearGradient id="SVGID_4_" x1="74" x2="73.61" y1="53.96" y2="106.6" gradientUnits="userSpaceOnUse">
    <stop stop-color="#9ED1E7" offset="0"/>
    <stop stop-color="#79BDD6" offset="1"/>
  </linearGradient>
  <path d="m39.7 52.5c1.2-2.4 2.4-4.4 3.4-5.8l59.2 0.1c2.5 4.8-5.5 5.9-5.6 8.4 0 4.3 26.2 0.9 37 5.2 2.8 0.8 9.2 3.5 10.2 6.4l-42.2 2.1-62.8-4.8c-2.2-2.8-1.2-7.4 0.8-11.6z" fill="url(#SVGID_4_)"/>
  <path d="m10.1 95.6c5.2 5.3 20 6.8 32.7 7.5l25.9 7.3c3.2 4.1 7.4 9.7 19.7 10.8 7.2 0.5 14.3 0 21.1-1.6 5.4-1.6 10.1-3.9 12.9-6.7l-31.1-13.7-81.2-3.6z" fill="#7DC1D0"/>
  <path d="m8.3 91.1c0.9 7.6 12.8 7.6 28.2 6.9 7.2-0.4 7.6-0.5 10 0.5 1.6 0.8 4.7 0.2 4.8-2.1 10-0.3 15.2 1.1 24.6 1.2l-4.8-5.1-47.2-11.4c-7.4 0.9-15.9 3.7-15.6 10z" fill="#6BB5C9"/>
  <path d="m103.1 93.5c-0.2-5.4 13.2-6.7 20.5-8.4 7.3-1.5 18.9-3.5 21.4-10v-4.3c-1.8-4.4-6.3-8.1-16.2-10.1-9.2-1.8-28.8-0.7-35.9-3l3 2.6v1.3c0.2 2.5 6.6 2.3 13.2 2.4 9.7 0.1 22.9 0.4 22.6 3.2-0.4 3.5-20.9 2.8-31.6 2.8l-0.9-3.2 0.4-3.2-3.7-2s-21.8-0.7-21.8-2.7c-0.2-1.6 13.9-1.3 13.9-2-1.9 0.6-13.9 0.2-14 1.9-0.3 1.6 6.3 1.7 21.9 2.3 12.1 0.5 33.2-0.4 39.6 2.4 8.9 3.2 10.9 11.7-1.6 15.8-9.9 3.1-19 1.9-27.5 3.1-12.7 1.5-18.8 6.3-11.5 12.3 3 2.5 15.8 5.8 14.2 10-1.6 3.8-12.7 6-22 5.6l22 8.4c5.3-1.2 12.1-3.9 14-6.6 5.6-6.8 0.5-10-4.4-12.1-8.4-3.9-5.6-7.6 3.4-10 7.8-2 23-4.4 23-14.7l-0.1-4.8-41.9 23z" fill="#94CFD8"/>
  <path d="m8.3 91.1c0.8-4.6 7.4-8.7 22.6-9.4 8.7-0.1 20.6 0.3 21.8-2.1l-4.2-5.7c7.6 0.5 12.2 5 2.8 6.1-8.2 1.3-15.6 1.6-21.8 1.6-12.8 0.1-21.4 3.1-21.2 9.5z" fill="#BFDEE9"/>
  <path d="m40.9 102.9 14.7 1.8c6.1 0.5 10.8 2.2 13.5 5.7 4 4.7 11 9.9 24.5 8.9 11.2-0.4 30.8-3.3 31.1-14.6-1.8 7.2-20.2 9.8-38.2 10h-10.1c3.3 1.8 14.3 2.8 19.7 2.4 11.5-0.4 28.7-3.1 28.6-12.4-1.4-4.2-10.7-5-10.7-8.6 0-2.5 4.1-4.6 10-6l-19.1 3.1v1.5l5.4 6.8c1.6 7-12.2 9.4-23.2 8.8l-46.2-7.4z" fill="#82C2D4"/>
  <path d="m15.7 89.6c9.2-4.5 23.9-2.5 31.9-4.7l3.3-2-23.2-1.2c-7.8-0.1-19.6 2.2-19.4 9.4l7.4-1.5z" fill="#72B9CA"/>
  <path d="m44 80.5c5.2-0.4 10.5-1.6 10.5-3.6 0-1.7-4-2.5-6-3 5.6 0.1 8.3 1.8 8.2 3.7-1 2.5-8.3 3.1-12.7 2.9z" fill="#C7E1ED"/>
  <path d="m102.8 46.8-59.7-0.1-0.6 0.6 60.6 0.3-0.3-0.8z" fill="#fff"/>
  <path d="m74 109.3c0 1.1 16.4 2.3 25.2 0.8 7.9-1.2 11.2-4.2 10-6.8 0 3.4-6.3 5.6-13.6 6.3-8.8 0.9-21.6-0.7-21.6-0.3z" fill="#C5E0EC"/>
  <path d="m42.9 99.2c-2.2 2.5 0.7 5.9 12.4 5.3-5.7-0.9-14-0.1-12.4-5.3z" fill="#D0E6F0"/>
  <path d="m25.9 89.2c-9.4 0.3-6 5.3 11 4.9 7.6 0 22.3-1 22.3-1-2.7-0.7-13.3 0.2-22.9 0.2-14.2 0.2-18.6-2.4-10.4-4.1z" fill="#93C8DE"/>
  <path d="m70 87.3c-0.5 3.8 15.5 2.3 15.5 7.1 0 2-5.8 2.9-11.5 2.8l4.5 0.5c5.1-0.1 7.8-1.3 7.6-3.3-0.2-4.8-15.3-3.7-15.7-6.8 0.1-2.4 15.1-0.9 19.5-5.2-8 2.8-19.5 2.1-19.9 4.4v0.5z" fill="#B2DAEA"/>
  <path d="m15.6 89.6c6.8-3.5 20.1-3.3 28.9-4.4 3.6-0.4 5.5-1.1 6.8-2.5-2.2 4.2-6.8 4.6-17.7 5.7l-7.3 0.7c-3.1 2 0.1 3.6 10.5 3.8h22.4c-2.8-0.4-15.1 0.6-23.1 0.6-14.5 0.1-18.4-3.1-10.2-4.3-3.2-0.3-10.2 0.8-10.3 0.4z" fill="#89C4DA"/>
  <path d="m96.7 54c-5.9 0.1-9.8 3.6 1 4.5 11.5 1.1 24.8-0.5 36.2 2.8 4.6 1.2 8.5 3.4 9.2 5.5-4.6-5.1-13.2-6.9-27-7.7-10.2-0.4-24.8 0.1-25.4-2.8-0.2-1.2 2.8-2.2 6-2.3z" fill="#fff"/>
  <path d="m144.4 73.6c-2.7 9.1-20.7 10.3-30 12.5-4.5 1-12.3 2.6-12.1 7.4 0.9 3.4 6.1 4.2 7.8 7.6-0.6-3.1-6-4.6-5.8-7 0.4-5.7 17.4-6 27.4-9.4 5.2-1.6 11.8-5 12.7-11.1z" fill="#F8FCFE"/>
  <path d="m42.5 54c0 0.8 12 1.5 24.7 0.7-5.3-0.3-18.3 0.2-24.7-0.7z" fill="#CDE4EE"/>
  <path d="m66.1 52.5c0 0.8 10.4 1.2 20.7 0.6-4.3-0.4-15.7 0-20.7-0.6z" fill="#D0E6F1"/>
  <path d="m79.7 51.2c0 0.5 9.8 0.8 17.1 0.1-3.7-0.4-13.2 0-17.1-0.1z" fill="#fff"/>
  <path d="m42.7 50.5c0 0.7 23.2 0.7 53.4-1.6-8-0.2-49.6 1-53.4 1.6z" fill="#A5D3E5"/>
  <path d="m48.9 48.9c0.3 0.6 26.2 0.6 47.4 0-2.4-0.5-41.6-0.2-47.4 0z" fill="#9BCCE3"/>
  <path d="m50.3 52.5c0.4 0.8 10 1 15.3-1.2-5.2 0-14.1 0.4-15.3 1.2z" fill="#A8D4E6"/>
  <path d="m68.5 52c0 0.4 3.4 0.4 5.5 0.1-1.6-0.2-4.5-0.4-5.5-0.1z" fill="#fff"/>
  <path d="m38.9 56.9c1.5 1 20.8 1.1 27.6 0.2 1.5-0.7-17.3-0.2-27.6-0.2z" fill="#CAE2EE"/>
  <path d="m46.8 59.9c0.8 0.5 12.5 0.8 19.3 0 0.8-0.4-17.7-0.7-19.3 0z" fill="#E0EDF4"/>
  <path d="m39.6 61.6c0.7 1.5 16.5 1.6 22.3 1.3-4.2-0.5-19.5-0.5-22.3-1.3z" fill="#BBDBEB"/>
  <path d="m56.7 61.7c-0.3 1.2 10 1 14.6 1.5 4.3 1.3-8.9 2.1-19.7 1.7-0.1 1.8 14.1 1.8 25.3 2 8.6 1-11.6 1.8-16.9 3-7.3 1.7 4.1 3 23.9 3.3 10.4 0.4 18.4 0.4 18.2 2.8l0.2-0.9-1.2-0.7-5.5-0.8-16.1-0.4-21-1.3-0.5-2 3.1-0.7 14.8-1.2 1.4-0.5-2.9-0.6-11.7-0.5 5.3-1.2-0.7-0.5-6.6-0.3-3.6-0.3-0.4-2.4z" fill="#CAE2EE"/>
  <path d="m51.6 65.1c0.3 1.7 12.5 1.6 16.4 0.1-3.9-0.1-13.5 0.5-16.4-0.1z" fill="#C2DDEB"/>
  <path d="m70.4 56.4c0 0.3 2.7 0.4 4.5 0.1-1.2-0.1-3.7-0.4-4.5-0.1z" fill="#A4D1E5"/>
  <path d="m68.1 53.5c1.4 1.4 17.4 1.7 21.1-0.2-5.1-0.8-16.5 0.7-21.1 0.2z" fill="#A7D4E6"/>
  <linearGradient id="SVGID_5_" x1="78.15" x2="98.5" y1="60.2" y2="60.2" gradientUnits="userSpaceOnUse">
    <stop stop-color="#EDF5FA" offset="0"/>
    <stop stop-color="#A3D0E4" offset="1"/>
  </linearGradient>
  <path d="m74.4 58.5c-0.3 1.6 13.2 2.2 24.1 2.2-2.1-0.7-24-1.1-24-2l-0.1-0.2z" fill="url(#SVGID_5_)"/>
  <path d="m95.9 61.2c0.2 3.3 16.2 2.4 24.6 2.9 5 0.3 11.1 1 11.2 3-1.8-2.4-15.2-2.7-22.6-2.7-7.2-0.3-12.7-0.8-13.2-2.8v-0.4z" fill="#67B3CF"/>
  <path d="m99.6 63.6c-2.7 6.9 3.5 7.6 10.8 8.8 4.9 0.5 7.7 2.3 8.7 2.1 7.4 0.4 7.3 3.1-2.3 4.2l12.1 1.2c4.3-1.2 8.7-5.5 7.2-7.2-2-2.2-8.9-2.4-17.6-2.4l-16.2 0.4-3.1-3.1 0.4-4z" fill="#A2D1E5"/>
  <path d="m99.6 68.4c0 2.5 25.6 1.6 25.9-2.1-3 1.8-19.1 2.1-25.9 1.6v0.5z" fill="#87C0DC"/>
  <path d="m116.7 72.4c4.6-0.4 15.6-0.4 15.6 2.1 0 1.9-5.9 4-15.5 4 6.7-0.6 14-2.5 13.6-4-0.5-1.8-9.9-2.1-13.7-2.1z" fill="#84C0DD"/>
  <path d="m85.7 58.9 11.1 1 2.4-0.8-2.5-0.2-4.6-1.3 2.3 1.3-4.8 0.4-2.3-0.2-0.2 0.2 3.3 1.1-4.7-1.5z" fill="#87C2DE"/>
  <path d="m87.1 59.1c-0.4 1.3 13.8 1.4 22.1 1.6 8.4 0.2 22.3 0.2 27.3 2.9-6.6-2-18.5-2-27.6-2-8.2 0-18 0-21.8-2.5z" fill="#85BDDD"/>
  <path d="m83.9 73.2c2.8-2.3-1.5-2.5-1.6-4.8-0.4-1.7-0.7-3.9 0.2-6l-26.1-0.8c0.1 1.1 15.3 1.1 15.3 2-0.1 1.3-3 1.3-3.7 1.6 3.2 0.5-1.6 1.2-5.3 1.2l14.2 0.5 1.1 0.3-2.1 0.8-18 1.9-2.6 0.8c0.2 4.2 10.2 5 29.1 5l-18.1-0.2-9.9-1 0.8 1 6.3 0.9 2.1 2.1-0.3 1.5 5.8 2 2.8-0.4 0.1-1.3-1.3-1.4 1.2-0.8 11.2-1.4 3.8-1-5-2.5z" fill="#82C0DE"/>
  <path d="m56.4 74.5c2.8 1 9 1.2 28 1.2-2.8-1.2-26-2.5-26.9-3.7l-1.1 2.5z" fill="#8CC3E0"/>
  <path d="m85.7 70.4c-0.1 2 8.4 2.3 15.1 3.6l1.3 0.5 0.2 1.5-6.7 1.9h-2.7l4 0.5-5.4 1.2 5.2 0.3-5.9 1.2 2.3 0.5-9 0.8-8.8 1.5-0.4-1 1.5-0.8-2.8-1 0.8-0.7-2-1.3 0.3-0.4 1.4-0.6 15.1-1.8 8-1.8-13.3-1.3 1.8-2.8z" fill="#8BC2DF"/>
  <path d="m85.3 64.5-1.4 0.7c-0.7 1.7 10.4 2.1 16.6 2.5l-0.9 1.2c-5.5 0-13.9 0-14 1.4 0 1.7 10 2.2 14.8 3.3 4.5 1.1 2.9 4-7.3 4.3 4.6 0.8 10.2-0.3 9.2-2.4l-5-1c-5.8-0.9-14.2-1-13.4-1.3l1.8-2.8-3.3-2-0.8-6h6.8c4.8 0.5 3.3 1.2 0.7 1.5l-3.8 0.6z" fill="#78B9DA"/>
  <path d="m92.7 71.6c1.7 1.6 24 1.9 24.1 1.9l-2.9-1.1-4.4-0.4-4.7-0.8-2.5-0.5-9.6 0.9z" fill="#89C3DF"/>
  <path d="m92.7 71.6c1.7 1.6 18.6 0.9 24.1 1.9l4 1-2.8 1-0.4 1.7 2 0.7-8.5 2.5-18 1.2 9.8-2.7 15-0.4c-7.2-0.4-15.6 0.7-26.4 1.4l5.2-1.2-3.8-0.3 5-0.5 4-0.7 0.4-1.7-0.2-1-4.8-0.1-4.6-2.8z" fill="#90C6E1"/>
  <path d="m56.4 74.5 0.3 0.7 6.2 1.6c2.8 1.6 1.2 3.2-2.9 3.6 1.1 1.2 6.4 0.1 5.3-1.9l-1.8-2.1-7.1-1.9z" fill="#95C9E2"/>
  <path d="m56.4 74.5c3.3 1.6 9.1 1.9 6.8 4.8l-3.3 1.1c-0.2-0.3 3.7-0.9 3.6-2.3-0.3-1.6-3.8-2.4-7.1-3.6z" fill="#C1DDED"/>
  <path d="m50.3 82.9c5.3-2 14.8-0.2 23.6-1.3l0.5-1.2-2-1.2-7.1 0.4c0.2 2.5-7.7 1.3-11.7 2.4l-3.3 0.9z" fill="#75B8DC"/>
  <path d="m50.3 88 1 1.2 5.2 0.8 20 1.9c11.1 1.2 7 4.8 1.2 5l5.1 0.2 2.9-1 0.2-2.4-1.4-1.6-4.8-1.2-7.2-1.3-2.6-1.6 0.1-1.3 0.8-0.6 9.3-1.2-5.2-1 0.4-1-2.9 0.3 0.3-0.5-6.6 0.9-0.5 2-2 1.5-1.9-0.6-0.1 1.2-1.7-0.1-0.3 0.4-1.2-0.4-1.2 0.8-0.5-0.4-0.6 0.5-2.5-1.2-0.7 0.7-0.8 0.9-1.8-0.9z" fill="#7ABDDE"/>
  <path d="m25.1 89.2-0.3 1.5c0.1 1.4 7.3 2.2 10.3 2.2h13.3 10.8c-4.8-0.5-14.1 0.4-22.5 0.7-5.4 0-9.8-0.1-13.2-0.7l1.6-3.7z" fill="#61A8D4"/>
  <path d="m25.1 89.2 2.5-0.3 8-0.5c7.9-0.8 12.9-1.9 14.7-4.4l-7.4 1.5-9.7 0.4-7.1 0.5-4.5 0.7-3.5 1-2.4 1.5 5.5-1.7 3.9 1.3z" fill="#62A9D4"/>
  <path d="m26.1 90.1 1.4 1.4 2.8 0.4 0.2-0.8 1.1 0.4-0.8-1 2.5-0.1 1.6 1.1-0.1 1h4.8l1.1-2.1 2.9 0.5 0.5-1.4-0.8-0.4-5.6 0.4-11.6 0.6z" fill="#55A2D0"/>
  <path d="m45.2 98.4 2.4 0.7 3.3-1.1 0.6-1.6c-2.4 0.3-5.1 0.8-6.3 2z" fill="#69ADDA"/>
  <path d="m46 98.5c0.9 0.6 2.7 0.4 4.3-0.5-0.8-0.4-3.5-0.1-4.3 0.5z" fill="#6CB1D7"/>
  <path d="m49.1 87.6c0 3.1 28 3.1 32.5 5.5l1.9 1 0.1 1.5 1.7-2.1-0.8-1.4-4.5-1.2-8.4-1-8.7-0.8-8-0.7-4.6-0.8 0.9-1.2-2.1 1.2z" fill="#77BDD7"/>
  <path d="m70 86.9c0 3.2 15.5 2 15.6 7.6 2.3-4.4-14.5-3.6-15.6-6.6v-1z" fill="#80C1DD"/>
  <path d="m83.9 80.9c0.2-3.3 6.9-3.3 13-2.2-6.4 0-10-0.6-13 2.2z" fill="#7DBED8"/>
  <path d="m81.9 105.1 7.7-0.2c8.8-0.2 14.3-3.6 10-7.2l-4.4-2.8-2.3 3.5-11 6.7z" fill="#71B5CD"/>
  <path d="m48.4 105.1 7.2-0.4c6 0.4 11.1 2.1 13.5 5.7l3.2 1.1-1.1-2.6-2.8-2.9 0.8-0.5 0.3 0.4 1-0.2 0.8 0.8h1l2.2 0.8 1.2 0.2 0.6-0.8 1.3-0.2-1.2-0.6 1.5-0.2-0.2-0.6h4.2l-14-2.2h-11.4l-8.1 2.2z" fill="#80C4D9"/>
  <path d="m25.5 99.5 0.6 1.2-2.6 0.2 4.5 1.2-2.8 0.8 1.3 0.7 1.9-1.2 1.6 0.3-0.4-0.6 3.3 1 1.8 1.8h0.6v0.7h1.1l0.3 0.9h1l0.2 0.8 1.2-0.4 1.6 1.1 0.9-0.4 0.5 0.5 0.8-0.5 1.5 0.9 0.5-0.1 0.7-0.5 1.1 0.6 0.6-0.9-0.6-1.1h1.3l1.9-0.9 0.9-0.1-1.2-0.8-1.2 0.4-2.1 0.8-1-1.2-1.4-0.6-0.8-1-17.6-3.6z" fill="#6EB7CD"/>
  <path d="m55.6 105.9 0.7 0.5 1.3-0.8 2.4 0.8 0.9-0.4 1.2 0.5-0.2-1-3.2-0.8-3.1 0.4v0.8z" fill="#75BDCB"/>
  <path d="m55.6 106.4 1.2 2.3v1.6l-1.7-1.4-0.8 0.2-0.6-0.7-0.8 0.1-0.6-0.9-0.8-0.3 0.5-0.6-1.7 0.2-0.3-1.3 1.6-0.5 4 0.8v0.5z" fill="#70BCC8"/>
  <path d="m62 104.7 1.1-0.3 3 1.7 0.6-0.1v0.4l-0.3 0.1-4.4-1.8z" fill="#71B9C8"/>
  <path d="m48.4 105.1 7.2-0.4 5.1 0.8 1.3-0.8-1.3-2.6-6.2 0.8-6.1 2.2z" fill="#7FC2DB"/>
  <path d="m54.8 102.4-0.3 0.9 1.9 0.3v-0.9l2-0.3 0.3-1.1-1.4 0.4-2.5 0.7z" fill="#7DC1DA"/>
  <path d="m51.5 96.4 0.1 1.2 7.3 0.3 7.5 1.3 0.9 0.5h3.2l1.1-0.5 4.5 2.1 5.8 1.6h7.6l3.4-4.5-0.8-3.9-3.6-1c0.4 4-5.6 5.4-12.1 5.8-5.2 0.3-12 0.3-11.2 2.4l-3.7-0.4-4.3-1.6-5.7-3.3z" fill="#80C3DB"/>
  <path d="m64.9 101.3c1 2.3 13.9 3.9 22.8 3.6 9.5 0 16.2-3.2 11.9-7l-4.4-3-3.1-0.4-0.2 3.4-10 7.2-13.9-2.2-3.1-1.6z" fill="#6AB3CC"/>
  <path d="m64.9 101.3 1.2 2.3 1.2-0.5 0.6 1.3-1.2 0.3v1.7l-2.4-1.7 0.6-0.8-1.6 0.2 1.1-0.8-2.3-0.2v-0.7h-1.2l-2.2-1.1h6.2z" fill="#89C8DD"/>
  <path d="m51.5 96.4 0.1 1.2 12.9-0.1 13.2 0.2-8.2-0.8-10.2-0.8-7.8 0.3z" fill="#95CEDF"/>
  <path d="m48.4 105.1 7.2-0.4 6.7 1.2-3.8-1.2h-2.9l-7.2 0.4z" fill="#ACDAE9"/>
  <path d="m64.9 101.3c1 2.3 13.9 3.9 22.8 3.6 6.8 0 12-1.3 12.7-4.2l-18.5 4.4-13.9-2.2-3.1-1.6z" fill="#95CEDF"/>
  <path d="m87.1 109.1 0.5-0.4 0.8 1.2 1.2-1 1.1 0.4 0.8-0.4 1.2 0.7 1.8-0.4 1.5 1.2 1.6 0.5 1.1-0.4 0.9 0.6-4.5 2.1-2.6-1.3-2.9 0.5-0.4-0.4-0.8 0.4-1.5-0.5-1.3 0.1v-0.4l-1.5-0.3v-0.8h-1l4-1.4z" fill="#9BD0E1"/>
  <path d="m87.1 109.1" fill="#7FC2DB"/>
  <path d="m70.3 105.9 1 0.6h1l2.2 0.8 1.2 0.2 0.6-0.8 1.3-0.2-1.2-0.6 1.5-0.2-0.2-0.6h4.2l-4.4-1-2.6 1.9-0.9 0.4v0.5l-1.6-0.4h-1.1l-1-0.6z" fill="#80C4DB"/>
  <path d="m69.5 105.5 1.8 1 1-1.8-2 0.2-0.8 0.6z" fill="#86C5DD"/>
  <path d="m66.7 104.7 1.6-1.1-0.4 1.1h-1.2z" fill="#8DC8DE"/>
  <path d="m66.4 103.9-2.1-1.2 0.8 1.4 1.3-0.2z" fill="#8CC7DE"/>
  <path d="m62.1 102.4h1.2l2.8 1.2-1.8-1.7-2.2 0.5z" fill="#88C5DD"/>
  <path d="m59.3 101.3 2.8 1.1 2.2-0.5-3-1.2-2 0.6z" fill="#91C9DF"/>
  <path d="m58.7 101.3-1.1 0.4 0.8 0.4 0.9-0.8h-0.6z" fill="#95CBDF"/>
  <path d="m56.8 101.7-2 0.7 1.6 0.3 0.4-1z" fill="#8DC8DE"/>
  <path d="m65.2 101.7 5.3 1.9 0.8-0.7 1.1 0.7 0.8-1.2 1.7 0.5 2.6-0.8-5.9-2.4-4.1 0.2-2.3 0.8v1z" fill="#86C5DD"/>
  <path d="m83.9 108 3.2 1.1 2.5-0.2-3.1-1.3-2.6 0.4z" fill="#9CD0E2"/>
  <path d="m89.6 108.9 1.9-0.5 1.2 1.2-3.1-0.7z" fill="#9AD0E1"/>
  <path d="m92.7 109.6 1.8-0.4 1.5 1.2-3.3-0.8z" fill="#9BD1E1"/>
</svg>